<?xml version="1.0" ?>
<!-- Uploaded to: SVG Repo, www.svgrepo.com, Generator: SVG Repo Mixer Tools -->
<svg fill="#000000" width="800px" height="800px" viewBox="0 0 512 512" id="icon" version="1.1" xml:space="preserve" xmlns="http://www.w3.org/2000/svg" xmlns:xlink="http://www.w3.org/1999/xlink">
<g>
<path d="M436.9757996,322.9118958c-0.9259949-1.7124939-2.716095-2.7807922-4.6615906-2.7807922h-58.8168945   L147.1072998,96.7982025c-1.6219025-1.5988007-4.0901031-1.9841995-6.1233978-0.9493027   c-2.0332031,1.0346985-3.1768036,3.254303-2.8352966,5.5101013l32.9641876,218.7720947h-59.6923904   c-1.8445053,0-3.5569992,0.9596863-4.5193024,2.5325928c-0.9624023,1.5753174-1.0373001,3.5361938-0.1966019,5.1788025   l43.9880981,86.0003052c0.9054108,1.7691956,2.7266998,2.8843079,4.7161102,2.8843079h220.5438995   c1.7850037,0,3.4509888-0.9004211,4.4313965-2.3929138l56.3616028-86.0000916   C437.8114929,326.7044067,437.8994141,324.6245117,436.9757996,322.9118958z M150.9978943,115.5197983l207.4128113,204.6112976   h-176.583313L150.9978943,115.5197983z M373.0916138,406.1308899H158.6502075l-38.5686111-75.4039001h302.4255981   L373.0916138,406.1308899z"/>
<path d="M138.8264008,205.2994995c0-2.9257965-2.3722992-5.2980042-5.2980957-5.2980042h-28.3371048   c-2.9261017,0-5.2981033,2.3722076-5.2981033,5.2980042c0,2.9259033,2.3720016,5.2978973,5.2981033,5.2978973h28.3371048   C136.4541016,210.5973969,138.8264008,208.2254028,138.8264008,205.2994995z"/>
<path d="M89.7910004,200.0014954H79.6865005c-2.9256973,0-5.2981033,2.3722076-5.2981033,5.2980042   c0,2.9259033,2.372406,5.2978973,5.2981033,5.2978973h10.1044998c2.9261017,0,5.2979965-2.371994,5.2979965-5.2978973   C95.0889969,202.373703,92.7171021,200.0014954,89.7910004,200.0014954z"/>
<path d="M111.4204025,242.9550018h26.4204025c2.9257965,0,5.2979889-2.3722076,5.2979889-5.2982025   c0-2.925705-2.3721924-5.2980042-5.2979889-5.2980042h-26.4204025c-2.9259033,0-5.2980042,2.3722992-5.2980042,5.2980042   C106.1223984,240.5827942,108.4944992,242.9550018,111.4204025,242.9550018z"/>
<path d="M122.6865005,265.0549927c0,2.9259949,2.3722,5.2982178,5.2980957,5.2982178h15.4026108   c2.9257965,0,5.2979889-2.3722229,5.2979889-5.2982178c0-2.9256897-2.3721924-5.2980042-5.2979889-5.2980042h-15.4026108   C125.0587006,259.7569885,122.6865005,262.129303,122.6865005,265.0549927z"/>
</g>
</svg>